<svg xmlns="http://www.w3.org/2000/svg" viewBox="0 0 112.2 112.2"><defs><style>.cls-1{fill:#ff6a22;}.cls-2{fill:#f1f2f2;}</style></defs><title>1Asset 1</title><g id="Layer_2" data-name="Layer 2"><g id="Capa_1" data-name="Capa 1"><circle class="cls-1" cx="56.1" cy="56.1" r="56.1"/><path class="cls-2" d="M16.71,68.83a.34.34,0,0,1-.33.31.33.33,0,0,1-.32-.31l-.6-4.44.6-4.51a.33.33,0,0,1,.32-.32.34.34,0,0,1,.33.32l.7,4.52Zm3,2.7a.36.36,0,0,1-.34.33.36.36,0,0,1-.34-.33l-.8-7.14.8-7.3a.36.36,0,0,1,.34-.33.36.36,0,0,1,.34.33l.91,7.3ZM23,72.74a.42.42,0,0,1-.41.4.43.43,0,0,1-.41-.4l-.75-8.34.75-8.66a.43.43,0,0,1,.41-.41.43.43,0,0,1,.41.41l.86,8.66Zm3.29.26a.48.48,0,0,1-1,0l-.72-8.6.72-8.9a.48.48,0,0,1,1,0l.81,8.9Zm3.31.07a.55.55,0,0,1-1.09,0l-.68-8.68.68-8.25a.55.55,0,0,1,1.09,0l.77,8.26Zm3.34,0h0a.62.62,0,0,1-1.23,0l-.63-8.68L31.7,51a.62.62,0,0,1,1.23,0l.72,13.43Zm3.32,0h0a.69.69,0,0,1-1.37,0l-.6-8.62.6-16.51a.69.69,0,0,1,1.37,0l.67,16.51Zm3.44-.13h0a.76.76,0,0,1-1.51,0l-.55-8.53.55-17.88a.77.77,0,0,1,.76-.75.76.76,0,0,1,.75.75l.62,17.88Zm3.42-.06a.82.82,0,0,1-1.64,0L41,64.4l.52-18.47a.82.82,0,0,1,1.64,0l.57,18.47Zm3.44-.07h0a.89.89,0,0,1-1.78,0l-.47-8.4.47-18a.89.89,0,1,1,1.78,0l.54,18Zm3.48,0h0a1,1,0,0,1-1.93,0l-.43-8.35.43-17.35a1,1,0,0,1,1.93,0l.48,17.35Zm3.54-.88,0,.81a1,1,0,0,1-.3.73,1,1,0,0,1-.72.3,1,1,0,0,1-.79-.37,1,1,0,0,1-.24-.61.06.06,0,0,1,0,0l-.39-8.3L51.46,44v-.2a1.06,1.06,0,0,1,.48-.86,1,1,0,0,1,.56-.17,1,1,0,0,1,1,1L54,64.41Zm3.44.71h0a1.1,1.1,0,0,1-2.2,0l-.23-4-.22-4.14L54.81,42v-.12a1.07,1.07,0,0,1,.41-.84,1,1,0,0,1,.69-.25,1.07,1.07,0,0,1,.56.15,1.16,1.16,0,0,1,.54.94l.49,22.52Zm29.73,1.1H59A1.17,1.17,0,0,1,58,72.54V40.82c0-.58.21-.88,1-1.17a17.89,17.89,0,0,1,6.4-1.2A17.66,17.66,0,0,1,82.88,54.53a10,10,0,1,1,3.86,19.16Z"/></g></g></svg>