<svg xmlns="http://www.w3.org/2000/svg" viewBox="0 0 39.97 40"><defs><style>.cls-1{fill:#80d8ff;}.cls-2{fill:#00e5ff;}.cls-3{fill:#82b1ff;}.cls-4{fill:#8c9eff;}.cls-5{fill:#b388ff;}.cls-6{fill:#ea80fc;}.cls-7{fill:#ff80ab;}.cls-8{fill:#ff8a80;}.cls-9{fill:#fff;}</style></defs><title>1Asset 1</title><g id="Layer_2" data-name="Layer 2"><g id="Layer_1-2" data-name="Layer 1"><g id="surface97090"><path class="cls-1" d="M35.83,32.17l0-.05h0s0,0,0,0Z"/><path class="cls-2" d="M10.61,37.64a19.92,19.92,0,0,0,25.25-5.52Z"/><path class="cls-1" d="M10.62,37.64l25.21-5.51a19.93,19.93,0,0,0,3-5.53L5.6,33.87a20.28,20.28,0,0,0,5,3.77Z"/><path class="cls-3" d="M39.92,21.49,2.48,29.67a20.28,20.28,0,0,0,3.12,4.2l33.23-7.25A20.13,20.13,0,0,0,39.92,21.49Z"/><path class="cls-4" d="M39.92,21.49a20.21,20.21,0,0,0-.4-5.77L.44,24.27a20.24,20.24,0,0,0,2,5.4Z"/><path class="cls-5" d="M39.52,15.73A20,20,0,0,0,37.79,11L0,19.08a20,20,0,0,0,.42,5.19Z"/><path class="cls-6" d="M37.79,11l.05.07A19.89,19.89,0,0,0,33.52,5.3l-32,7A19.73,19.73,0,0,0,0,19.07Z"/><path class="cls-7" d="M33.52,5.3s0,0,0,0a19.92,19.92,0,0,0-6-3.8L5.34,6.39a20.27,20.27,0,0,0-3.79,5.89Z"/><path class="cls-8" d="M5.34,6.39,27.61,1.53A19.92,19.92,0,0,0,5.34,6.39Z"/><path class="cls-9" d="M20,2A18,18,0,1,0,38,20,18,18,0,0,0,20,2Zm9,22.31A4.67,4.67,0,0,1,24.31,29h-.09A3.07,3.07,0,0,1,21,26.43a2.89,2.89,0,0,1,0-.88,3.19,3.19,0,0,1,2.25-2.65l.27-.06L26.3,22a.91.91,0,0,0,.68-.88V14.31a.89.89,0,0,0-1.05-.9L18,15.14a1.26,1.26,0,0,0-1,1.25V27.33A4.52,4.52,0,0,1,12.5,32h-.1A3.37,3.37,0,0,1,9,29.29a3,3,0,0,1,0-.89,3.19,3.19,0,0,1,2.25-2.64l.27-.06,2.77-.82A.91.91,0,0,0,15,24V10.67a1.24,1.24,0,0,1,1-1.23L27.91,7a.91.91,0,0,1,1.07.9Z"/></g></g></g></svg>