<svg xmlns="http://www.w3.org/2000/svg" viewBox="0 0 427.65 427.65"><defs><style>.cls-1{fill:#00d95f;}</style></defs><title>1Asset 2</title><g id="Layer_2" data-name="Layer 2"><g id="Layer_1-2" data-name="Layer 1"><path class="cls-1" d="M213.83,0C95.73,0,0,95.73,0,213.83S95.73,427.65,213.83,427.65s213.82-95.73,213.82-213.82S331.92,0,213.83,0Zm93.06,310.32a14.62,14.62,0,0,1-20,5.25c-38.42-22.46-82.81-26.07-113.29-25.14-33.76,1-58.52,7.69-58.77,7.76a14.62,14.62,0,0,1-7.75-28.2c1.11-.31,27.76-7.54,64.81-8.76a285.46,285.46,0,0,1,62.44,4.52c24.83,4.71,47.48,13,67.32,24.57A14.63,14.63,0,0,1,306.89,310.32Zm27.18-56.46a17.3,17.3,0,0,1-23.69,6.22c-45.52-26.6-98.1-30.88-134.2-29.78-40,1.22-69.33,9.11-69.62,9.19a17.32,17.32,0,0,1-9.18-33.4c1.32-.36,32.88-8.94,76.77-10.38a338.64,338.64,0,0,1,74,5.35c29.41,5.58,56.24,15.37,79.75,29.11A17.32,17.32,0,0,1,334.07,253.86Zm16.71-51.33a21.15,21.15,0,0,1-10.7-2.91C231.87,136.38,91.51,174,90.1,174.36a21.24,21.24,0,1,1-11.28-41c1.62-.45,40.33-11,94.16-12.74a415.29,415.29,0,0,1,90.72,6.57c36.08,6.85,69,18.86,97.82,35.71a21.25,21.25,0,0,1-10.74,39.59Z"/></g></g></svg>